<svg width="16" height="16" viewBox="-0.5 0 16 16" fill="none" xmlns="http://www.w3.org/2000/svg">
  <path d="m9.99,15.35h-5.05c0-.45-.05-.91,0-1.35.04-.39-.12-.47-.45-.45-.48.02-.97.04-1.44,0-.73-.06-1.26-.48-1.56-1.11-.33-.67-.66-1.31-1.31-1.74-.1-.06-.12-.22-.18-.34.11-.06.21-.14.33-.15.75-.04,1.21.43,1.55,1,.63,1.02,1.64,1.4,2.76.99.14-.06.3-.18.36-.33.17-.39.32-.81.46-1.21-.15-.03-.36-.06-.56-.1-1.25-.25-2.42-.66-3.17-1.76-.73-1.07-.89-2.32-.83-3.58.05-.85.4-1.63.9-2.33.08-.11.06-.3.03-.44-.1-.71-.15-1.42.12-2.11.12-.27.29-.41.59-.29.62.25,1.28.45,1.86.78.38.21.73.23,1.11.14,1.28-.3,2.55-.34,3.83,0,.31.08.68.09.97-.02.69-.25,1.33-.59,2.02-.89.33-.14.61.02.66.34.1.55.15,1.11.12,1.66-.03.46-.11.86.25,1.27.23.25.35.61.47.95.3.83.24,1.69.12,2.55-.28,2.01-1.36,3.06-3.17,3.57-.46.13-.94.19-1.44.3.62.71.73,1.65.71,2.68,0,.66-.06,1.32-.09,1.99h0Z" fill="white"/>
</svg>